<svg width="16" height="16" viewBox="0 0 16 16" fill="none" xmlns="http://www.w3.org/2000/svg">
<rect width="16" height="16" fill="#FFEFD5"/>
<path d="M0.7625 8.375C0.7625 7.86 0.8775 7.4 1.1075 6.995C1.3425 6.585 1.66 6.2675 2.06 6.0425C2.465 5.8125 2.9175 5.6975 3.4175 5.6975C4.0025 5.6975 4.515 5.8475 4.955 6.1475C5.395 6.4475 5.7025 6.8625 5.8775 7.3925H4.67C4.55 7.1425 4.38 6.955 4.16 6.83C3.945 6.705 3.695 6.6425 3.41 6.6425C3.105 6.6425 2.8325 6.715 2.5925 6.86C2.3575 7 2.1725 7.2 2.0375 7.46C1.9075 7.72 1.8425 8.025 1.8425 8.375C1.8425 8.72 1.9075 9.025 2.0375 9.29C2.1725 9.55 2.3575 9.7525 2.5925 9.8975C2.8325 10.0375 3.105 10.1075 3.41 10.1075C3.695 10.1075 3.945 10.045 4.16 9.92C4.38 9.79 4.55 9.6 4.67 9.35H5.8775C5.7025 9.885 5.395 10.3025 4.955 10.6025C4.52 10.8975 4.0075 11.045 3.4175 11.045C2.9175 11.045 2.465 10.9325 2.06 10.7075C1.66 10.4775 1.3425 10.16 1.1075 9.755C0.8775 9.35 0.7625 8.89 0.7625 8.375Z" fill="#FFA500"/>
<path d="M8.58184 11.0525C8.21684 11.0525 7.88684 10.99 7.59184 10.865C7.30184 10.74 7.07184 10.56 6.90184 10.325C6.73184 10.09 6.64434 9.8125 6.63934 9.4925H7.76434C7.77934 9.7075 7.85434 9.8775 7.98934 10.0025C8.12934 10.1275 8.31934 10.19 8.55934 10.19C8.80434 10.19 8.99684 10.1325 9.13684 10.0175C9.27684 9.8975 9.34684 9.7425 9.34684 9.5525C9.34684 9.3975 9.29934 9.27 9.20434 9.17C9.10934 9.07 8.98934 8.9925 8.84434 8.9375C8.70434 8.8775 8.50934 8.8125 8.25934 8.7425C7.91934 8.6425 7.64184 8.545 7.42684 8.45C7.21684 8.35 7.03434 8.2025 6.87934 8.0075C6.72934 7.8075 6.65434 7.5425 6.65434 7.2125C6.65434 6.9025 6.73184 6.6325 6.88684 6.4025C7.04184 6.1725 7.25934 5.9975 7.53934 5.8775C7.81934 5.7525 8.13934 5.69 8.49934 5.69C9.03934 5.69 9.47684 5.8225 9.81184 6.0875C10.1518 6.3475 10.3393 6.7125 10.3743 7.1825H9.21934C9.20934 7.0025 9.13184 6.855 8.98684 6.74C8.84684 6.62 8.65934 6.56 8.42434 6.56C8.21934 6.56 8.05434 6.6125 7.92934 6.7175C7.80934 6.8225 7.74934 6.975 7.74934 7.175C7.74934 7.315 7.79434 7.4325 7.88434 7.5275C7.97934 7.6175 8.09434 7.6925 8.22934 7.7525C8.36934 7.8075 8.56434 7.8725 8.81434 7.9475C9.15434 8.0475 9.43184 8.1475 9.64684 8.2475C9.86184 8.3475 10.0468 8.4975 10.2018 8.6975C10.3568 8.8975 10.4343 9.16 10.4343 9.485C10.4343 9.765 10.3618 10.025 10.2168 10.265C10.0718 10.505 9.85934 10.6975 9.57934 10.8425C9.29934 10.9825 8.96684 11.0525 8.58184 11.0525Z" fill="#008080"/>
<path d="M13.1521 11.0525C12.7871 11.0525 12.4571 10.99 12.1621 10.865C11.8721 10.74 11.6421 10.56 11.4721 10.325C11.3021 10.09 11.2146 9.8125 11.2096 9.4925H12.3346C12.3496 9.7075 12.4246 9.8775 12.5596 10.0025C12.6996 10.1275 12.8896 10.19 13.1296 10.19C13.3746 10.19 13.5671 10.1325 13.7071 10.0175C13.8471 9.8975 13.9171 9.7425 13.9171 9.5525C13.9171 9.3975 13.8696 9.27 13.7746 9.17C13.6796 9.07 13.5596 8.9925 13.4146 8.9375C13.2746 8.8775 13.0796 8.8125 12.8296 8.7425C12.4896 8.6425 12.2121 8.545 11.9971 8.45C11.7871 8.35 11.6046 8.2025 11.4496 8.0075C11.2996 7.8075 11.2246 7.5425 11.2246 7.2125C11.2246 6.9025 11.3021 6.6325 11.4571 6.4025C11.6121 6.1725 11.8296 5.9975 12.1096 5.8775C12.3896 5.7525 12.7096 5.69 13.0696 5.69C13.6096 5.69 14.0471 5.8225 14.3821 6.0875C14.7221 6.3475 14.9096 6.7125 14.9446 7.1825H13.7896C13.7796 7.0025 13.7021 6.855 13.5571 6.74C13.4171 6.62 13.2296 6.56 12.9946 6.56C12.7896 6.56 12.6246 6.6125 12.4996 6.7175C12.3796 6.8225 12.3196 6.975 12.3196 7.175C12.3196 7.315 12.3646 7.4325 12.4546 7.5275C12.5496 7.6175 12.6646 7.6925 12.7996 7.7525C12.9396 7.8075 13.1346 7.8725 13.3846 7.9475C13.7246 8.0475 14.0021 8.1475 14.2171 8.2475C14.4321 8.3475 14.6171 8.4975 14.7721 8.6975C14.9271 8.8975 15.0046 9.16 15.0046 9.485C15.0046 9.765 14.9321 10.025 14.7871 10.265C14.6421 10.505 14.4296 10.6975 14.1496 10.8425C13.8696 10.9825 13.5371 11.0525 13.1521 11.0525Z" fill="#FF0D9B"/>
</svg>
